<mxfile host="app.diagrams.net" modified="2023-10-23T11:48:20.193Z" agent="Mozilla/5.0 (Macintosh; Intel Mac OS X 10.15; rv:109.0) Gecko/20100101 Firefox/118.0" version="22.0.6" etag="F5hRd1CQuRU2WBMqe6ua" type="github">
  <diagram name="Page-1" id="5jYJm04WBMX_7uu1hIL_">
    <mxGraphModel>
      <root>
        <mxCell id="0" />
        <mxCell id="1" parent="0" />
      </root>
    </mxGraphModel>
  </diagram>
</mxfile>
